<mxfile host="app.diagrams.net" agent="Mozilla/5.0 (Windows NT 10.0; Win64; x64) AppleWebKit/537.36 (KHTML, like Gecko) Chrome/131.0.0.0 Safari/537.36" version="25.0.3">
  <diagram name="Page-1" id="g5t8_6tvsPi2aTvtdbDX">
    <mxGraphModel dx="1050" dy="1699" grid="1" gridSize="10" guides="1" tooltips="1" connect="1" arrows="1" fold="1" page="1" pageScale="1" pageWidth="827" pageHeight="1169" math="0" shadow="0">
      <root>
        <mxCell id="0" />
        <mxCell id="1" parent="0" />
        <mxCell id="bNllpt2MsXqP5VPL3tRk-3" value="Actor" style="shape=umlActor;verticalLabelPosition=bottom;verticalAlign=top;html=1;outlineConnect=0;" parent="1" vertex="1">
          <mxGeometry x="60" y="180" width="30" height="60" as="geometry" />
        </mxCell>
        <mxCell id="bNllpt2MsXqP5VPL3tRk-4" value="" style="rounded=1;whiteSpace=wrap;html=1;rotation=-90;" parent="1" vertex="1">
          <mxGeometry x="100" y="80" width="440" height="240" as="geometry" />
        </mxCell>
        <mxCell id="bNllpt2MsXqP5VPL3tRk-5" value="Uporablja kartico" style="ellipse;whiteSpace=wrap;html=1;" parent="1" vertex="1">
          <mxGeometry x="210" y="10" width="120" height="80" as="geometry" />
        </mxCell>
        <mxCell id="bNllpt2MsXqP5VPL3tRk-6" value="Banka" style="shape=umlActor;verticalLabelPosition=bottom;verticalAlign=top;html=1;outlineConnect=0;" parent="1" vertex="1">
          <mxGeometry x="600" y="170" width="30" height="60" as="geometry" />
        </mxCell>
        <mxCell id="bNllpt2MsXqP5VPL3tRk-7" value="" style="endArrow=classic;html=1;rounded=0;entryX=0.773;entryY=0.042;entryDx=0;entryDy=0;entryPerimeter=0;" parent="1" target="bNllpt2MsXqP5VPL3tRk-4" edge="1">
          <mxGeometry width="50" height="50" relative="1" as="geometry">
            <mxPoint x="110" y="180" as="sourcePoint" />
            <mxPoint x="160" y="130" as="targetPoint" />
          </mxGeometry>
        </mxCell>
        <mxCell id="bNllpt2MsXqP5VPL3tRk-8" value="" style="endArrow=classic;html=1;rounded=0;entryX=0.773;entryY=0.042;entryDx=0;entryDy=0;entryPerimeter=0;exitX=0.818;exitY=0.667;exitDx=0;exitDy=0;exitPerimeter=0;" parent="1" source="bNllpt2MsXqP5VPL3tRk-4" edge="1">
          <mxGeometry width="50" height="50" relative="1" as="geometry">
            <mxPoint x="480" y="260" as="sourcePoint" />
            <mxPoint x="580" y="160" as="targetPoint" />
          </mxGeometry>
        </mxCell>
        <mxCell id="uhOgxj2Z-WNdpO6x-tQt-1" value="" style="ellipse;whiteSpace=wrap;html=1;" parent="1" vertex="1">
          <mxGeometry x="270" y="270" width="120" height="80" as="geometry" />
        </mxCell>
      </root>
    </mxGraphModel>
  </diagram>
</mxfile>
